<svg xmlns="http://www.w3.org/2000/svg" xmlns:xlink="http://www.w3.org/1999/xlink" version="1.1" id="Layer_1" x="0px" y="0px" width="200.541px" height="91.707px" viewBox="0 0 200.541 91.707" enable-background="new 0 0 200.541 91.707" xml:space="preserve"><g><g><defs><rect id="SVGID_1_" y="4.6" width="200" height="82"/></defs><defs><path id="SVGID_2_" d="M39.012 86.561h-1.993V75.577h1.993V86.561L39.012 86.561z M64.009 82.552h-2.995 c0 0-0.06 2.697-0.024 4.009c0.001 0 0.1 0 0.1 0H58.97V75.555h5.903v2.015H60.99v2.985h3.02V82.552L64.009 82.552z M78.111 82.188c0 0.748-0.093 1.404-0.278 1.971s-0.446 1.037-0.78 1.414c-0.334 0.375-0.737 0.658-1.208 0.8 c-0.471 0.189-0.992 0.285-1.563 0.285s-1.094-0.096-1.567-0.285c-0.474-0.191-0.88-0.475-1.22-0.85 c-0.339-0.377-0.603-0.848-0.791-1.414s-0.282-1.223-0.282-1.971v-1.771c0-0.768 0.093-1.442 0.278-2.025 c0.186-0.584 0.447-1.071 0.784-1.461c0.337-0.391 0.742-0.686 1.216-0.883c0.474-0.198 0.996-0.297 1.567-0.297 s1.092 0.1 1.6 0.297c0.471 0.2 0.9 0.5 1.2 0.883c0.339 0.4 0.6 0.9 0.8 1.5 c0.186 0.6 0.3 1.3 0.3 2.025V82.188L78.111 82.188z M75.95 80.4c0-0.508-0.037-0.94-0.11-1.3 c-0.073-0.358-0.181-0.653-0.322-0.882c-0.142-0.23-0.317-0.398-0.527-0.506s-0.452-0.161-0.725-0.161 c-0.278 0-0.522 0.054-0.732 0.161s-0.386 0.275-0.527 0.506c-0.142 0.229-0.249 0.523-0.322 0.9 c-0.073 0.359-0.11 0.792-0.11 1.3v1.787c0 0.5 0 0.9 0.1 1.242c0.073 0.3 0.2 0.6 0.3 0.8 s0.322 0.4 0.5 0.483s0.458 0.2 0.7 0.153c0.273 0 0.514-0.051 0.721-0.153s0.382-0.264 0.524-0.483 s0.248-0.502 0.318-0.846c0.071-0.345 0.106-0.758 0.106-1.242V80.4L75.95 80.4z M87.426 82.587h-1.41v3.974h-0.205h-1.648 l0.043-11.001h3.435c0.532 0 1 0.1 1.4 0.209c0.417 0.1 0.8 0.3 1.1 0.615c0.291 0.3 0.5 0.6 0.7 1 s0.23 0.9 0.2 1.392c0 0.386-0.079 1.07-0.15 1.381c-0.071 0.31-0.173 0.586-0.308 0.8 c-0.134 0.242-0.296 0.453-0.487 0.634s-0.405 0.337-0.645 0.469l1.868 4.365v0.103H88.99L87.426 82.587L87.426 82.587z M85.994 79.143c0 0.6 0 1.4 0 1.433h1.527c0.43 0 0.752-0.14 0.967-0.419s0.29-0.546 0.29-1.014 c0-0.239-0.023-0.455-0.07-0.648s-0.12-0.358-0.22-0.495c-0.1-0.136-0.228-0.241-0.384-0.315c-0.156-0.073-0.342-0.11-0.557-0.11 h-1.585V79.143L85.994 79.143z M99.758 75.579l2.224 8.013l1.813-8.013h3.225v10.981h-1.963v-7.332l-2.012 7.332h-1.996 l-2.05-7.332v7.332h-1.972L97.01 75.579H99.758L99.758 75.579z M118.111 84.574h-2.938l-0.623 1.986h-2.277l3.342-10.987h1.971 l3.344 10.987h-2.299L118.111 84.574L118.111 84.574z M115.589 82.584h1.992l-0.996-3.802L115.589 82.584L115.589 82.584z M133.011 77.569h-3.004v8.991h-1.994v-8.991h-2.949v-2.015h7.947V77.569L133.011 77.569z M140.996 86.543h-1.992v-10.98h0.668 h1.324V86.543L140.996 86.543z M154.255 82.188c0 0.748-0.092 1.404-0.277 1.971s-0.445 1.037-0.779 1.4 c-0.336 0.375-0.738 0.658-1.209 0.85c-0.471 0.189-0.992 0.285-1.564 0.285c-0.57 0-1.094-0.096-1.566-0.285 c-0.475-0.191-0.881-0.475-1.221-0.85c-0.338-0.377-0.602-0.848-0.791-1.414c-0.188-0.566-0.281-1.223-0.281-1.971v-1.771 c0-0.768 0.092-1.442 0.277-2.025c0.186-0.584 0.447-1.071 0.785-1.461c0.336-0.391 0.742-0.686 1.215-0.883 c0.475-0.198 0.996-0.297 1.568-0.297c0.57 0 1.1 0.1 1.6 0.297c0.473 0.2 0.9 0.5 1.2 0.9 c0.34 0.4 0.6 0.9 0.8 1.461c0.186 0.6 0.3 1.3 0.3 2.025V82.188L154.255 82.188z M152.095 80.4 c0-0.508-0.037-0.94-0.109-1.3c-0.074-0.358-0.182-0.653-0.322-0.882c-0.143-0.23-0.318-0.398-0.527-0.506 c-0.211-0.107-0.451-0.161-0.725-0.161c-0.279 0-0.523 0.054-0.732 0.161c-0.211 0.107-0.387 0.275-0.527 0.5 c-0.143 0.229-0.25 0.523-0.322 0.882c-0.074 0.359-0.111 0.792-0.111 1.3v1.787c0 0.5 0 0.9 0.1 1.2 c0.072 0.3 0.2 0.6 0.3 0.846c0.143 0.2 0.3 0.4 0.5 0.483c0.213 0.1 0.5 0.2 0.7 0.2 c0.273 0 0.514-0.051 0.723-0.153c0.207-0.103 0.381-0.264 0.523-0.483c0.141-0.22 0.248-0.502 0.318-0.846 c0.07-0.345 0.105-0.758 0.105-1.242V80.4L152.095 80.4z M168.001 86.561h-2.014l-3.977-7.042v7.042H160V75.579h2.012 l3.984 7.271v-7.271h2.006V86.561L168.001 86.561z M53.013 86.561H51l-3.978-7.042v7.042h-2.011V75.579h2.011l3.985 7.271v-7.271 h2.006V86.561L53.013 86.561z M53.013 86.6"/></defs><defs><path id="SVGID_3_" d="M0 4.561h200v82H0V4.561z M0 4.6"/></defs><defs><rect id="SVGID_4_" y="-705.4" width="612" height="792"/></defs><clipPath id="SVGID_5_"><use xlink:href="#SVGID_1_" overflow="visible"/></clipPath><clipPath id="SVGID_6_" clip-path="url(#SVGID_5_)"><use xlink:href="#SVGID_2_" overflow="visible"/></clipPath><clipPath id="SVGID_7_" clip-path="url(#SVGID_6_)"><use xlink:href="#SVGID_3_" overflow="visible"/></clipPath><clipPath id="SVGID_8_" clip-path="url(#SVGID_7_)"><use xlink:href="#SVGID_4_" overflow="visible"/></clipPath><rect x="32" y="70.6" clip-path="url(#SVGID_8_)" width="141" height="21.2"/></g><g><defs><rect id="SVGID_9_" y="4.6" width="200" height="82"/></defs><defs><path id="SVGID_10_" d="M57.011 52.014c0.729 0.7 1.4 1.1 2.2 1.146v1.401c-3.373-0.137-7.622-0.205-12.749-0.205 c-5.332 0-9.251 0.068-11.758 0.205v-1.401c1.754-0.068 3.014-0.285 3.777-0.649s1.145-1.003 1.145-1.914 c0-0.706-0.285-1.812-0.854-3.315l-4.17-11.484H20.439l-1.196 3.145c-1.504 3.919-2.256 6.961-2.256 9.1 c0 1.9 0.5 3.2 1.6 3.931s2.638 1.1 4.7 1.162v1.401c-3.486-0.137-6.54-0.205-9.16-0.205 c-2.21 0-4.01 0.068-5.4 0.205v-1.401c1.139-0.183 2.228-0.9 3.264-2.153s2.091-3.27 3.162-6.05L30.727 5 c1.002 0.1 2.2 0.1 3.7 0.137S37.096 5.1 38.1 5l16.953 43.682C55.621 50.2 56.3 51.3 57 52 L57.011 52.014L57.011 52.014z M27.719 16.895l-6.733 17.5h13.091L27.719 16.895L27.719 16.895z M87.739 17.2 c3.714 0 6.3 0.9 7.9 2.803c0.707 0.8 1.2 2 1.6 3.401s0.496 3.3 0.5 5.657v18.97 c0 1.3 0.1 2.3 0.4 3.042s0.655 1.2 1.2 1.538s1.327 0.4 2.3 0.444v1.47c-5.013-0.183-8.271-0.273-9.775-0.273 c-1.618 0-4.933 0.091-9.946 0.273v-1.47c0.82 0 1.458-0.148 1.914-0.444s0.786-0.803 0.991-1.521 c0.205-0.718 0.308-1.737 0.308-3.059V25.303c0-1.504-0.273-2.615-0.82-3.333s-1.413-1.077-2.598-1.077 c-0.866 0-1.686 0.216-2.461 0.649s-1.401 1.031-1.88 1.794s-0.718 1.624-0.718 2.581v22.148c0 1.3 0.1 2.3 0.3 3 s0.541 1.2 1 1.538s1.111 0.4 1.9 0.444v1.47c-4.74-0.183-7.827-0.273-9.263-0.273c-1.618 0-5.116 0.091-10.493 0.3 v-1.47c0.98 0 1.754-0.148 2.324-0.444s0.98-0.809 1.23-1.538s0.376-1.743 0.376-3.042V25.85c0-2.165-0.296-3.731-0.889-4.7 s-1.606-1.453-3.042-1.453v-1.47c1.481 0.1 2.9 0.2 4.3 0.205c4.854 0 8.91-0.319 12.168-0.957V22.5 C78.715 19 82.4 17.2 87.7 17.236L87.739 17.236L87.739 17.236z M126.908 18.296v1.401h-6.869v28.984 c0 0.9 0.2 1.6 0.5 1.948s0.865 0.6 1.6 0.581c0.57 0 1.195-0.165 1.879-0.496c0.684-0.33 1.311-0.849 1.881-1.555 l1.059 0.854c-2.141 3.691-5.457 5.537-9.945 5.537c-3.213 0-5.617-0.798-7.213-2.393c-0.957-0.957-1.594-2.165-1.914-3.623 c-0.318-1.458-0.479-3.498-0.479-6.118V19.697h-5.297v-1.401h5.297v-8.34c2.529 0 4.809-0.245 6.836-0.735 c2.029-0.49 3.955-1.271 5.777-2.341v11.416H126.908L126.908 18.296z M142.119 35.454c0 4.5 0.8 7.7 2.3 9.6 c1.561 1.9 3.5 2.9 5.7 2.854c3.395 0 6.221-1.561 8.477-4.683l1.195 0.444c-0.66 2.073-1.617 4.005-2.871 5.8 c-1.252 1.788-2.871 3.252-4.854 4.392s-4.283 1.709-6.904 1.709c-4.898 0-8.822-1.521-11.773-4.563 c-2.951-3.042-4.428-7.889-4.428-14.543c0-4.33 0.775-7.93 2.324-10.801c1.551-2.871 3.676-4.99 6.375-6.357 c2.701-1.367 5.805-2.051 9.314-2.051c8.818 0 13.2 5.2 13.2 15.688h-18.08C142.142 33.5 142.1 34.3 142.1 35.5 L142.119 35.454L142.119 35.454z M149.246 22.449c-0.582-2.381-1.488-3.572-2.719-3.572c-1.275 0-2.301 1.002-3.076 3 c-0.773 2.005-1.275 5.241-1.504 9.707h8.102C150.093 27.9 149.8 24.8 149.2 22.449L149.246 22.449L149.246 22.449z M189.115 17.236c2.279 0 3.9 0.7 4.9 2.102c1.004 1.4 1.5 3.1 1.5 4.973c0 2.096-0.586 3.766-1.76 5 s-2.729 1.863-4.666 1.863c-2.027 0-3.576-0.45-4.648-1.35c-1.07-0.9-1.605-2.125-1.605-3.674c0-2.78 1.195-4.956 3.588-6.528 c-0.842 0-1.594 0.16-2.256 0.479c-1.184 0.501-2.17 1.327-2.955 2.478c-0.787 1.151-1.18 2.41-1.18 3.777v20.986 c0 1.5 0.2 2.6 0.6 3.469c0.41 0.8 1 1.4 1.9 1.761s2.027 0.5 3.5 0.513v1.47 c-5.742-0.183-9.514-0.273-11.314-0.273c-1.73 0-5.467 0.091-11.211 0.273v-1.47c0.98 0 1.756-0.148 2.324-0.444 c0.57-0.296 0.98-0.809 1.23-1.538c0.252-0.729 0.377-1.743 0.377-3.042V25.85c0-2.165-0.297-3.731-0.889-4.7 s-1.607-1.453-3.043-1.453v-1.47c1.482 0.1 2.9 0.2 4.3 0.205c4.854 0 8.91-0.319 12.168-0.957V22.5 C181.88 19 184.9 17.2 189.1 17.236L189.115 17.236L189.115 17.236z M189.115 17.2"/></defs><defs><path id="SVGID_11_" d="M0 4.561h200v82H0V4.561z M0 4.6"/></defs><clipPath id="SVGID_12_"><use xlink:href="#SVGID_9_" overflow="visible"/></clipPath><clipPath id="SVGID_13_" clip-path="url(#SVGID_12_)"><use xlink:href="#SVGID_10_" overflow="visible"/></clipPath><clipPath id="SVGID_14_" clip-path="url(#SVGID_13_)"><use xlink:href="#SVGID_11_" overflow="visible"/></clipPath><rect x="3.8" clip-path="url(#SVGID_14_)" fill="#0053FF" width="196.8" height="60.6"/></g></g></svg>